<mxfile host="app.diagrams.net" modified="2023-08-13T17:37:08.555Z" agent="Mozilla/5.0 (Macintosh; Intel Mac OS X 10.15; rv:109.0) Gecko/20100101 Firefox/116.0" etag="4x8ptNqaWw7zmQz2sMk_" version="21.6.8" type="device">
  <diagram name="Page-1" id="RznwEuXSLQRbpMzgzfdc">
    <mxGraphModel dx="2074" dy="1129" grid="1" gridSize="10" guides="1" tooltips="1" connect="1" arrows="1" fold="1" page="1" pageScale="1" pageWidth="1100" pageHeight="850" math="0" shadow="0">
      <root>
        <mxCell id="0" />
        <mxCell id="1" parent="0" />
        <mxCell id="Hc7pX0qDaw3272KTxAys-1" value="AWS Cloud (fault tolerant and highly available)" style="points=[[0,0],[0.25,0],[0.5,0],[0.75,0],[1,0],[1,0.25],[1,0.5],[1,0.75],[1,1],[0.75,1],[0.5,1],[0.25,1],[0,1],[0,0.75],[0,0.5],[0,0.25]];outlineConnect=0;gradientColor=none;html=1;whiteSpace=wrap;fontSize=12;fontStyle=0;container=1;pointerEvents=0;collapsible=0;recursiveResize=0;shape=mxgraph.aws4.group;grIcon=mxgraph.aws4.group_aws_cloud;strokeColor=#232F3E;fillColor=none;verticalAlign=top;align=left;spacingLeft=30;fontColor=#232F3E;dashed=0;" vertex="1" parent="1">
          <mxGeometry x="280" y="80" width="680" height="560" as="geometry" />
        </mxCell>
        <mxCell id="Hc7pX0qDaw3272KTxAys-2" value="Region - A" style="points=[[0,0],[0.25,0],[0.5,0],[0.75,0],[1,0],[1,0.25],[1,0.5],[1,0.75],[1,1],[0.75,1],[0.5,1],[0.25,1],[0,1],[0,0.75],[0,0.5],[0,0.25]];outlineConnect=0;gradientColor=none;html=1;whiteSpace=wrap;fontSize=12;fontStyle=0;container=1;pointerEvents=0;collapsible=0;recursiveResize=0;shape=mxgraph.aws4.group;grIcon=mxgraph.aws4.group_region;strokeColor=#147EBA;fillColor=none;verticalAlign=top;align=left;spacingLeft=30;fontColor=#147EBA;dashed=1;" vertex="1" parent="Hc7pX0qDaw3272KTxAys-1">
          <mxGeometry x="120" y="40" width="440" height="160" as="geometry" />
        </mxCell>
        <mxCell id="Hc7pX0qDaw3272KTxAys-15" value="Multi AZ &lt;br&gt;Cluster A" style="sketch=0;outlineConnect=0;fontColor=#232F3E;gradientColor=none;fillColor=#2E27AD;strokeColor=none;dashed=0;verticalLabelPosition=bottom;verticalAlign=top;align=center;html=1;fontSize=12;fontStyle=0;aspect=fixed;pointerEvents=1;shape=mxgraph.aws4.rds_multi_az_db_cluster;" vertex="1" parent="Hc7pX0qDaw3272KTxAys-2">
          <mxGeometry x="340" y="30" width="78" height="78" as="geometry" />
        </mxCell>
        <mxCell id="Hc7pX0qDaw3272KTxAys-3" value="Region - B" style="points=[[0,0],[0.25,0],[0.5,0],[0.75,0],[1,0],[1,0.25],[1,0.5],[1,0.75],[1,1],[0.75,1],[0.5,1],[0.25,1],[0,1],[0,0.75],[0,0.5],[0,0.25]];outlineConnect=0;gradientColor=none;html=1;whiteSpace=wrap;fontSize=12;fontStyle=0;container=1;pointerEvents=0;collapsible=0;recursiveResize=0;shape=mxgraph.aws4.group;grIcon=mxgraph.aws4.group_region;strokeColor=#147EBA;fillColor=none;verticalAlign=top;align=left;spacingLeft=30;fontColor=#147EBA;dashed=1;" vertex="1" parent="Hc7pX0qDaw3272KTxAys-1">
          <mxGeometry x="120" y="320" width="440" height="160" as="geometry" />
        </mxCell>
        <mxCell id="Hc7pX0qDaw3272KTxAys-16" value="Multi AZ&lt;br&gt;Cluster B" style="sketch=0;outlineConnect=0;fontColor=#232F3E;gradientColor=none;fillColor=#2E27AD;strokeColor=none;dashed=0;verticalLabelPosition=bottom;verticalAlign=top;align=center;html=1;fontSize=12;fontStyle=0;aspect=fixed;pointerEvents=1;shape=mxgraph.aws4.rds_multi_az_db_cluster;" vertex="1" parent="Hc7pX0qDaw3272KTxAys-3">
          <mxGeometry x="340" y="41" width="78" height="78" as="geometry" />
        </mxCell>
        <mxCell id="Hc7pX0qDaw3272KTxAys-17" style="edgeStyle=orthogonalEdgeStyle;rounded=0;orthogonalLoop=1;jettySize=auto;html=1;endArrow=classic;endFill=1;startArrow=classic;startFill=1;strokeWidth=2;" edge="1" parent="Hc7pX0qDaw3272KTxAys-1" source="Hc7pX0qDaw3272KTxAys-16" target="Hc7pX0qDaw3272KTxAys-15">
          <mxGeometry relative="1" as="geometry" />
        </mxCell>
        <mxCell id="Hc7pX0qDaw3272KTxAys-18" value="DB State&lt;br&gt;Replication" style="edgeLabel;html=1;align=center;verticalAlign=middle;resizable=0;points=[];" vertex="1" connectable="0" parent="Hc7pX0qDaw3272KTxAys-17">
          <mxGeometry x="-0.211" relative="1" as="geometry">
            <mxPoint y="-18" as="offset" />
          </mxGeometry>
        </mxCell>
        <mxCell id="Hc7pX0qDaw3272KTxAys-5" style="edgeStyle=orthogonalEdgeStyle;rounded=0;orthogonalLoop=1;jettySize=auto;html=1;entryX=0;entryY=0.5;entryDx=0;entryDy=0;" edge="1" parent="1" source="Hc7pX0qDaw3272KTxAys-4" target="Hc7pX0qDaw3272KTxAys-2">
          <mxGeometry relative="1" as="geometry" />
        </mxCell>
        <mxCell id="Hc7pX0qDaw3272KTxAys-14" value="Region/&lt;br&gt;Latency/&lt;br&gt;Availability&lt;br&gt;Routing" style="edgeLabel;html=1;align=center;verticalAlign=middle;resizable=0;points=[];" vertex="1" connectable="0" parent="Hc7pX0qDaw3272KTxAys-5">
          <mxGeometry x="0.0705" relative="1" as="geometry">
            <mxPoint x="41" y="78" as="offset" />
          </mxGeometry>
        </mxCell>
        <mxCell id="Hc7pX0qDaw3272KTxAys-6" style="edgeStyle=orthogonalEdgeStyle;rounded=0;orthogonalLoop=1;jettySize=auto;html=1;entryX=0;entryY=0.5;entryDx=0;entryDy=0;" edge="1" parent="1" source="Hc7pX0qDaw3272KTxAys-4" target="Hc7pX0qDaw3272KTxAys-3">
          <mxGeometry relative="1" as="geometry" />
        </mxCell>
        <mxCell id="Hc7pX0qDaw3272KTxAys-4" value="DNS&lt;br&gt;Routing" style="sketch=0;points=[[0,0,0],[0.25,0,0],[0.5,0,0],[0.75,0,0],[1,0,0],[0,1,0],[0.25,1,0],[0.5,1,0],[0.75,1,0],[1,1,0],[0,0.25,0],[0,0.5,0],[0,0.75,0],[1,0.25,0],[1,0.5,0],[1,0.75,0]];outlineConnect=0;fontColor=#232F3E;gradientColor=#945DF2;gradientDirection=north;fillColor=#5A30B5;strokeColor=#ffffff;dashed=0;verticalLabelPosition=bottom;verticalAlign=top;align=center;html=1;fontSize=12;fontStyle=0;aspect=fixed;shape=mxgraph.aws4.resourceIcon;resIcon=mxgraph.aws4.route_53;" vertex="1" parent="1">
          <mxGeometry x="220" y="300" width="78" height="78" as="geometry" />
        </mxCell>
        <mxCell id="Hc7pX0qDaw3272KTxAys-13" style="edgeStyle=orthogonalEdgeStyle;rounded=0;orthogonalLoop=1;jettySize=auto;html=1;entryX=0;entryY=0.5;entryDx=0;entryDy=0;entryPerimeter=0;" edge="1" parent="1" source="Hc7pX0qDaw3272KTxAys-7" target="Hc7pX0qDaw3272KTxAys-4">
          <mxGeometry relative="1" as="geometry">
            <Array as="points">
              <mxPoint x="160" y="288" />
              <mxPoint x="160" y="339" />
            </Array>
          </mxGeometry>
        </mxCell>
        <mxCell id="Hc7pX0qDaw3272KTxAys-24" style="edgeStyle=orthogonalEdgeStyle;rounded=0;orthogonalLoop=1;jettySize=auto;html=1;fillColor=#ffe6cc;strokeColor=#d79b00;" edge="1" parent="1" source="Hc7pX0qDaw3272KTxAys-7" target="Hc7pX0qDaw3272KTxAys-2">
          <mxGeometry relative="1" as="geometry">
            <Array as="points">
              <mxPoint x="259" y="260" />
              <mxPoint x="259" y="170" />
            </Array>
          </mxGeometry>
        </mxCell>
        <mxCell id="Hc7pX0qDaw3272KTxAys-26" value="Customer traffic" style="edgeLabel;html=1;align=center;verticalAlign=middle;resizable=0;points=[];" vertex="1" connectable="0" parent="Hc7pX0qDaw3272KTxAys-24">
          <mxGeometry x="-0.6168" relative="1" as="geometry">
            <mxPoint as="offset" />
          </mxGeometry>
        </mxCell>
        <mxCell id="Hc7pX0qDaw3272KTxAys-7" value="" style="sketch=0;outlineConnect=0;fontColor=#232F3E;gradientColor=none;fillColor=#232F3D;strokeColor=none;dashed=0;verticalLabelPosition=bottom;verticalAlign=top;align=center;html=1;fontSize=12;fontStyle=0;aspect=fixed;pointerEvents=1;shape=mxgraph.aws4.client;" vertex="1" parent="1">
          <mxGeometry x="40" y="250" width="78" height="76" as="geometry" />
        </mxCell>
        <mxCell id="Hc7pX0qDaw3272KTxAys-10" style="edgeStyle=orthogonalEdgeStyle;rounded=0;orthogonalLoop=1;jettySize=auto;html=1;entryX=0;entryY=0.5;entryDx=0;entryDy=0;entryPerimeter=0;" edge="1" parent="1" source="Hc7pX0qDaw3272KTxAys-8" target="Hc7pX0qDaw3272KTxAys-4">
          <mxGeometry relative="1" as="geometry" />
        </mxCell>
        <mxCell id="Hc7pX0qDaw3272KTxAys-25" style="edgeStyle=orthogonalEdgeStyle;rounded=0;orthogonalLoop=1;jettySize=auto;html=1;entryX=0;entryY=0.75;entryDx=0;entryDy=0;fillColor=#e1d5e7;strokeColor=#9673a6;" edge="1" parent="1" source="Hc7pX0qDaw3272KTxAys-8" target="Hc7pX0qDaw3272KTxAys-3">
          <mxGeometry relative="1" as="geometry">
            <Array as="points">
              <mxPoint x="250" y="410" />
              <mxPoint x="250" y="520" />
            </Array>
          </mxGeometry>
        </mxCell>
        <mxCell id="Hc7pX0qDaw3272KTxAys-27" value="Customer traffic" style="edgeLabel;html=1;align=center;verticalAlign=middle;resizable=0;points=[];" vertex="1" connectable="0" parent="Hc7pX0qDaw3272KTxAys-25">
          <mxGeometry x="-0.5073" y="-1" relative="1" as="geometry">
            <mxPoint x="-11" as="offset" />
          </mxGeometry>
        </mxCell>
        <mxCell id="Hc7pX0qDaw3272KTxAys-8" value="" style="sketch=0;outlineConnect=0;fontColor=#232F3E;gradientColor=none;fillColor=#232F3D;strokeColor=none;dashed=0;verticalLabelPosition=bottom;verticalAlign=top;align=center;html=1;fontSize=12;fontStyle=0;aspect=fixed;pointerEvents=1;shape=mxgraph.aws4.mobile_client;" vertex="1" parent="1">
          <mxGeometry x="59" y="350" width="41" height="78" as="geometry" />
        </mxCell>
        <mxCell id="Hc7pX0qDaw3272KTxAys-9" value="Users" style="sketch=0;outlineConnect=0;fontColor=#232F3E;gradientColor=none;fillColor=#232F3D;strokeColor=none;dashed=0;verticalLabelPosition=bottom;verticalAlign=top;align=center;html=1;fontSize=12;fontStyle=0;aspect=fixed;pointerEvents=1;shape=mxgraph.aws4.users;" vertex="1" parent="1">
          <mxGeometry x="40" y="470" width="78" height="78" as="geometry" />
        </mxCell>
      </root>
    </mxGraphModel>
  </diagram>
</mxfile>
